<?xml version="1.0" standalone="no"?>
<!DOCTYPE svg PUBLIC "-//W3C//DTD SVG 20010904//EN"
 "http://www.w3.org/TR/2001/REC-SVG-20010904/DTD/svg10.dtd">
<svg version="1.0" xmlns="http://www.w3.org/2000/svg"
 width="300.000000pt" height="63.000000pt" viewBox="0 0 300.000000 63.000000"
 preserveAspectRatio="xMidYMid meet">

<g transform="translate(0.000000,63.000000) scale(0.100000,-0.100000)"
fill="#000000" stroke="none">
<path d="M77 519 l-36 -52 58 -27 58 -28 6 -55 c3 -30 1 -99 -3 -153 -13 -145
-17 -133 38 -123 26 5 48 14 50 19 5 12 126 174 164 218 l28 33 0 -83 c0 -75
20 -161 42 -184 10 -9 115 53 133 79 29 41 75 167 90 243 8 42 17 79 19 81 11
11 44 -10 50 -30 5 -22 -63 -178 -106 -239 -10 -14 -18 -38 -18 -53 0 -29 47
-91 84 -112 16 -9 284 -12 1107 -13 1082 0 1087 0 1092 20 4 15 -1 21 -16 25
-12 3 -214 4 -450 3 -235 -2 -427 -1 -427 1 0 2 11 16 25 32 30 37 47 93 35
123 -9 25 -65 52 -130 62 l-41 7 48 27 c27 15 68 49 91 74 35 38 43 53 40 79
-2 27 -11 36 -48 55 -41 21 -55 23 -150 19 -142 -6 -199 -25 -234 -78 -15 -22
-26 -42 -24 -44 2 -2 34 3 72 11 38 8 71 13 73 11 2 -2 -4 -60 -13 -128 -18
-143 -29 -164 -83 -155 -44 7 -104 49 -140 98 -16 22 -31 35 -34 31 -3 -5 -9
-32 -13 -60 -7 -57 2 -81 52 -133 l33 -35 -427 2 -427 3 -27 24 c-47 41 -41
65 67 246 76 126 82 148 54 184 -27 34 -77 36 -107 3 -29 -31 -85 -154 -117
-260 -15 -49 -29 -87 -31 -84 -6 6 -10 28 -24 150 -7 59 -17 107 -22 107 -20
0 -84 -32 -96 -48 -56 -75 -218 -251 -220 -239 -2 8 11 72 28 142 16 70 30
133 30 140 0 36 -106 115 -153 115 -8 0 -30 -23 -50 -51z m1951 -65 c13 -9 21
-18 17 -22 -14 -14 -220 -140 -224 -137 -3 4 16 126 25 157 3 9 17 19 32 21
44 8 125 -3 150 -19z m-61 -235 c26 -12 50 -34 59 -51 l16 -31 -56 5 c-44 4
-63 11 -85 32 l-29 28 -18 -33 c-10 -19 -17 -46 -16 -61 l2 -28 -97 0 c-96 1
-97 1 -68 17 56 30 96 66 116 105 19 37 20 38 76 38 37 0 72 -7 100 -21z"/>
<path d="M896 551 c-35 -39 -4 -90 47 -77 38 9 48 53 17 78 -28 23 -43 23 -64
-1z"/>
<path d="M2730 551 c-23 -6 -26 -13 -31 -76 -4 -39 -7 -119 -8 -179 l-1 -108
31 6 c17 3 35 6 40 6 5 0 15 14 24 30 20 38 29 38 70 -3 l34 -34 30 31 30 31
-25 33 c-14 17 -34 32 -45 32 -24 0 -24 11 0 41 10 14 21 36 22 49 3 20 0 24
-16 22 -57 -8 -65 -12 -65 -39 0 -36 -21 -103 -33 -103 -10 0 -3 167 9 238 6
29 4 32 -17 31 -13 -1 -35 -4 -49 -8z"/>
<path d="M1075 417 c-33 -27 -35 -31 -35 -93 0 -36 4 -73 10 -83 23 -43 119
-52 152 -13 30 34 32 45 9 37 -13 -4 -36 -1 -52 5 -26 11 -29 17 -29 56 0 48
5 52 30 29 13 -11 24 -12 53 -4 33 9 37 13 31 32 -10 36 -31 50 -84 57 -45 6
-53 4 -85 -23z"/>
<path d="M913 415 c-47 -15 -63 -25 -63 -39 0 -13 5 -17 20 -13 19 5 20 0 20
-80 l0 -86 45 6 c26 2 47 6 49 8 1 2 0 54 -3 114 l-6 110 -62 -20z"/>
<path d="M1311 412 c-33 -28 -33 -28 -29 -101 3 -62 7 -76 27 -92 37 -30 96
-25 132 10 37 37 38 55 4 39 -20 -9 -31 -8 -50 2 -33 18 -32 30 4 30 54 0 78
15 84 55 8 48 1 62 -35 74 -55 19 -101 13 -137 -17z m99 -67 c0 -20 -5 -25
-25 -25 -26 0 -29 9 -19 47 5 19 10 21 25 12 11 -5 19 -20 19 -34z"/>
<path d="M2176 400 c-35 -38 -36 -43 -36 -114 0 -58 3 -75 16 -80 30 -12 44
-6 80 34 48 52 58 51 50 -6 -5 -40 -4 -45 12 -40 9 3 29 8 45 12 27 6 27 7 27
89 0 101 -12 119 -88 134 -71 15 -65 16 -106 -29z m94 -45 c9 -11 8 -20 -10
-46 -26 -35 -40 -26 -40 29 0 25 4 32 19 32 10 0 24 -7 31 -15z"/>
<path d="M2460 426 l-35 -13 -3 -108 -3 -108 32 7 c17 3 38 6 45 6 11 0 14 19
14 79 0 57 4 82 15 91 24 20 38 -32 31 -117 -3 -40 -3 -73 -1 -73 3 0 23 12
44 26 38 25 40 28 46 99 5 47 3 80 -4 94 -16 29 -57 37 -91 17 -35 -20 -40
-20 -40 -1 0 18 -4 18 -50 1z"/>
</g>
</svg>
